<svg width="261" height="51" viewBox="0 0 261 51" fill="none" xmlns="http://www.w3.org/2000/svg">
<path d="M44.9274 9.73064C43.3439 9.72396 42.0526 9.24554 41.038 8.28765C40.0233 7.32983 39.519 6.18649 39.5251 4.85003C39.5291 3.98659 39.7602 3.1917 40.2338 2.47287C40.7074 1.75411 41.3687 1.15624 42.2096 0.694261C43.0585 0.22485 43.9688 -0.00407462 44.9487 5.48728e-05C46.6028 0.00711255 47.9489 0.485759 48.9793 1.44365C50.0097 2.40162 50.5296 3.54504 50.5235 4.88149C50.5193 5.78247 50.2804 6.5923 49.8146 7.31114C49.3409 8.02997 48.6797 8.61283 47.8388 9.06722C46.9901 9.51418 46.0249 9.74281 44.9274 9.73815V9.73064ZM40.1148 40.2088L40.1792 12.6389L49.7743 12.6569L49.7099 40.2269L40.1148 40.2088Z" fill="url(#paint0_linear_4366_5907)"/>
<path d="M70.0094 41.1386C67.446 41.1278 65.2691 40.6606 63.4622 39.7219C61.656 38.7833 60.2826 37.4109 59.3263 35.6049C58.3707 33.7989 57.8944 31.657 57.9058 29.1719L57.929 20.7402L52.3946 20.7318L52.4135 13.2162L55.5178 13.2293C56.6074 13.2264 57.4554 12.9296 58.0618 12.339C58.6678 11.7485 58.9696 10.9238 58.9743 9.8802L58.9939 5.66068L67.5621 5.68185L67.5456 12.7095L75.4475 12.7279L75.4263 20.7842L67.5244 20.7658L67.508 27.6883C67.5009 29.2725 67.8874 30.453 68.6595 31.2295C69.4325 32.0062 70.5825 32.394 72.1268 32.4005C73.483 32.4062 74.5734 32.2231 75.3981 31.8662L75.3753 40.1927C74.7317 40.4828 73.9463 40.7123 73.0048 40.8885C72.0633 41.0647 71.0677 41.1581 70.0094 41.1537V41.1386Z" fill="url(#paint1_linear_4366_5907)"/>
<path d="M94.0051 41.1949C90.6186 41.1806 87.5723 40.5145 84.8662 39.1741C82.1601 37.8337 80.0749 36.0454 78.6114 33.8093C77.1478 31.5731 76.4227 29.1374 76.4266 26.5095C76.4305 23.8817 77.1791 21.3996 78.6709 19.191C80.1627 16.9748 82.2487 15.2042 84.9195 13.879C87.5911 12.5538 90.628 11.8909 94.0145 11.8977C97.0639 11.9107 99.8907 12.5608 102.503 13.8632C105.116 15.1657 107.169 16.9088 108.672 19.0925C110.175 21.2763 110.916 23.682 110.913 26.3174C110.909 26.8955 110.884 27.4736 110.826 28.0439C110.768 28.6218 110.664 29.0569 110.514 29.3416L83.2498 29.2789L83.2592 23.8204L104.707 23.866L101.766 27.5927C101.806 27.3376 101.854 27.105 101.91 26.8875C101.966 26.6701 101.999 26.3623 102 25.9719C102.006 24.6355 101.628 23.4776 100.88 22.4834C100.132 21.4891 99.1554 20.7042 97.9513 20.1284C96.7464 19.5527 95.4153 19.2543 93.9494 19.2555C92.3346 19.2487 90.8749 19.5429 89.5713 20.138C88.2747 20.7332 87.2516 21.5623 86.5179 22.6479C85.7834 23.726 85.4095 24.9858 85.411 26.4274C85.4032 28.0116 85.7732 29.3421 86.5054 30.4039C87.2375 31.4656 88.2606 32.2884 89.5752 32.872C90.889 33.4482 92.3934 33.7399 94.0866 33.747C95.6701 33.7537 96.9487 33.5864 97.9223 33.2452C98.9038 32.904 99.6736 32.4867 100.24 31.9786L109.944 32.4325C109.223 33.9462 108.15 35.3682 106.717 36.6986C105.285 38.029 103.484 39.1176 101.317 39.9569C99.1491 40.7962 96.7174 41.2138 94.0051 41.2099V41.1949Z" fill="url(#paint2_linear_4366_5907)"/>
<path d="M131.202 41.2768C127.478 41.2686 124.259 40.6694 121.552 39.4716C118.845 38.2739 116.743 36.6882 115.24 34.6997C113.736 32.7112 112.915 30.5829 112.769 28.3147L122.93 27.8471C123.231 28.892 123.729 29.7952 124.423 30.5565C125.117 31.3177 126.063 31.8998 127.268 32.3179C128.474 32.7359 129.9 32.9447 131.554 32.9516C133.208 32.9586 134.478 32.8139 135.475 32.5252C136.472 32.2366 137.179 31.8492 137.597 31.3704C138.015 30.8842 138.221 30.3895 138.223 29.8864C138.226 29.0981 137.853 28.4208 137.096 27.8545C136.346 27.2957 135.408 26.8263 134.28 26.446C133.153 26.0659 131.611 25.6389 129.653 25.1651C126.38 24.2953 123.672 23.4579 121.528 22.6606C119.384 21.8631 117.563 20.6541 116.064 19.026C114.559 17.3979 113.816 15.2699 113.821 12.642C113.83 10.5848 114.45 8.73284 115.696 7.07879C116.942 5.42474 118.814 4.11118 121.32 3.14571C123.824 2.18023 126.923 1.69783 130.608 1.70587C134.292 1.71397 137.143 2.25907 139.717 3.35113C142.291 4.43569 144.284 5.93071 145.685 7.82127C147.096 9.71926 147.886 11.8324 148.071 14.1758L137.799 14.6955C137.646 13.7563 137.266 12.9438 136.65 12.258C136.034 11.5721 135.205 11.028 134.173 10.6332C133.14 10.2385 131.925 10.0305 130.53 10.0322C129.135 10.0338 127.989 10.1866 127.086 10.5132C126.183 10.8322 125.507 11.2423 125.05 11.7284C124.601 12.2145 124.372 12.7466 124.369 13.3248C124.365 14.0831 124.724 14.7228 125.435 15.2439C126.146 15.765 127.053 16.1818 128.141 16.4942C129.229 16.8066 130.732 17.1734 132.651 17.6094C135.924 18.4117 138.633 19.1964 140.777 19.9789C142.921 20.7613 144.782 21.963 146.358 23.5839C147.934 25.2124 148.716 27.3705 148.711 30.0735C148.701 32.1983 148.065 34.1101 146.78 35.8016C145.494 37.493 143.559 38.8288 140.96 39.8164C138.361 40.8041 135.106 41.2933 131.194 41.2843L131.202 41.2768Z" fill="url(#paint3_linear_4366_5907)"/>
<path d="M156.964 9.97867C155.381 9.97199 154.09 9.49349 153.075 8.53568C152.06 7.57786 151.556 6.43444 151.562 5.09799C151.566 4.23455 151.797 3.43966 152.271 2.7209C152.745 2.00214 153.405 1.40426 154.247 0.942287C155.096 0.472876 156.006 0.243952 156.986 0.248082C158.64 0.255065 159.986 0.733785 161.016 1.69168C162.046 2.64957 162.566 3.79307 162.561 5.12952C162.556 6.03042 162.326 6.84033 161.851 7.55916C161.378 8.27792 160.717 8.86078 159.868 9.31518C159.019 9.76214 158.054 9.99076 156.957 9.98618L156.964 9.97867ZM152.152 40.4568L152.216 12.8868L161.811 12.9048L161.747 40.4748L152.152 40.4568Z" fill="url(#paint4_linear_4366_5907)"/>
<path d="M203.718 40.5623L203.806 2.72112L213.401 2.73921L213.373 15.5481L213.656 15.5493C214.183 15.0109 214.86 14.4882 215.693 13.9887C216.518 13.4892 217.579 13.0581 218.858 12.6956C220.138 12.3407 221.589 12.1591 223.204 12.1659C225.759 12.1768 228.054 12.727 230.086 13.8318C232.112 14.9366 233.712 16.46 234.871 18.4095C236.03 20.3591 236.608 22.5915 236.604 25.1142L236.564 40.626L226.914 40.6078L226.945 27.0405C226.951 25.8167 226.665 24.7268 226.106 23.7709C225.546 22.815 224.757 22.0458 223.741 21.4709C222.725 20.896 221.527 20.5981 220.131 20.5997C218.854 20.5943 217.684 20.8822 216.63 21.4559C215.578 22.0296 214.767 22.792 214.198 23.7506C213.629 24.7017 213.35 25.7968 213.344 27.0206L213.313 40.5879L203.718 40.5698V40.5623Z" fill="url(#paint5_linear_4366_5907)"/>
<path d="M255.57 41.5401C253.014 41.5293 250.829 41.062 249.023 40.1234C247.216 39.1848 245.843 37.8124 244.887 36.0064C243.931 34.2004 243.454 32.0585 243.466 29.5733L243.49 21.1416L237.955 21.1333L237.974 13.6176L241.078 13.6308C242.168 13.6278 243.015 13.3311 243.622 12.7405C244.22 12.1499 244.53 11.3253 244.527 10.2816L244.546 6.06209L253.115 6.08326L253.098 13.1109L261 13.1293L260.978 21.1856L253.077 21.1672L253.061 28.0897C253.053 29.6739 253.44 30.8544 254.212 31.6309C254.984 32.4076 256.135 32.7954 257.679 32.8019C259.035 32.8076 260.126 32.6245 260.951 32.2676L260.928 40.5942C260.284 40.8842 259.499 41.1137 258.557 41.2899C257.616 41.4661 256.62 41.5595 255.57 41.5551V41.5401Z" fill="url(#paint6_linear_4366_5907)"/>
<path fill-rule="evenodd" clip-rule="evenodd" d="M192.203 13.1693L199.313 13.1844L199.306 13.1919L199.249 37.3006C199.244 40.0786 198.591 42.4785 197.288 44.5152C195.985 46.5519 194.08 48.1432 191.575 49.2888C189.068 50.4345 186.032 51.0148 182.457 50.9997C178.882 50.9921 175.969 50.4392 173.716 49.356C171.455 48.2727 169.807 47.0419 168.756 45.671C167.704 44.3001 167.066 43.0736 166.844 41.9914L176.778 41.4703C177.223 42.0052 177.934 42.4587 178.889 42.8232C179.851 43.1876 181.065 43.3655 182.531 43.3716C184.789 43.3737 186.54 42.9231 187.782 42.0049C189.025 41.0865 189.643 39.7302 189.651 37.9282L189.657 36.6293L189.375 36.6282C188.997 37.0245 188.415 37.435 187.621 37.8671C186.827 38.2992 185.822 38.6779 184.598 38.9956C183.381 39.3208 182.048 39.4803 180.621 39.4743C177.65 39.4618 175.003 38.8499 172.696 37.6163C170.389 36.3827 168.602 34.7234 167.349 32.6308C166.097 30.5382 165.465 28.2154 165.477 25.6552C165.488 23.2 166.118 20.9427 167.389 18.8684C168.653 16.8014 170.425 15.1871 172.703 14.0179C174.981 12.8563 177.548 12.2665 180.409 12.2786C182.063 12.2856 183.528 12.4569 184.813 12.8002C186.089 13.1434 187.184 13.5686 188.083 14.0754C188.982 14.5823 189.811 15.1789 190.56 15.8654L190.842 15.8665L192.203 13.1693ZM182.793 30.8715H182.798C182.793 30.879 182.789 30.8865 182.785 30.8939L187.668 30.9145L187.679 27.1302V27.078C187.684 25.8542 187.399 24.7643 186.839 23.8083C186.279 22.8524 185.491 22.0833 184.475 21.5084C183.458 20.9334 182.26 20.6431 180.865 20.6371C179.587 20.6317 178.417 20.9197 177.365 21.4933C176.311 22.067 175.5 22.8369 174.931 23.7881C174.89 23.8596 174.85 23.9323 174.812 24.0061C174.681 24.2521 174.574 24.5099 174.482 24.7726C174.465 24.819 174.448 24.8655 174.433 24.9122L174.435 24.91C174.434 24.9133 174.434 24.9164 174.432 24.9196C174.621 24.7852 174.826 24.6584 175.038 24.5392C175.886 24.0698 176.797 23.8409 177.777 23.845C179.431 23.852 180.777 24.3307 181.807 25.2886C182.838 26.2466 183.358 27.39 183.351 28.7264C183.351 28.7375 183.351 28.7487 183.351 28.7598C183.341 29.5335 183.145 30.235 182.793 30.8715Z" fill="url(#paint7_linear_4366_5907)"/>
<path fill-rule="evenodd" clip-rule="evenodd" d="M14.0509 5.55824C13.9567 6.72336 13.5232 7.82864 12.8223 8.78165L18.3698 8.80508C20.1728 8.81266 21.5448 9.17553 22.486 9.89361C23.47 10.6118 23.9589 11.6475 23.9527 13.0005C23.9465 14.3535 23.448 15.3849 22.4573 16.0948C21.5098 16.7673 20.1345 17.0998 18.3316 17.0921L11.1197 17.0617L11.1502 10.4113C10.182 11.0951 9.01298 11.5863 7.70541 11.8048C6.48305 12.009 5.27261 11.9527 4.14895 11.6803C3.60021 13.3521 2.11085 14.7266 0.116726 15.2418L0 40.5799L21.0563 40.6688C25.7784 40.6888 29.4532 39.7459 32.0806 37.8403C34.7512 35.8972 36.0941 33.272 36.1093 29.9647C36.1199 27.6721 35.335 25.6392 33.7548 23.8661C32.1748 22.0554 30.0766 20.9002 27.4602 20.4005C29.7811 19.809 31.632 18.7457 33.0128 17.2106C34.4365 15.6757 35.1537 13.7431 35.1644 11.413C35.179 8.256 33.8813 5.75113 31.2711 3.89849C28.7039 2.04607 25.1236 1.1101 20.5303 1.09066L18.0022 1.08C17.6511 3.04676 16.1677 4.75412 14.0509 5.55824ZM23.4151 31.8278C22.4245 32.5377 21.0062 32.8887 19.1604 32.881L11.0469 32.8467L11.0871 24.1085L19.0719 24.1423C20.9177 24.1501 22.354 24.5508 23.3806 25.3444C24.4502 26.1382 24.9818 27.2303 24.9754 28.6209C24.969 30.0115 24.4489 31.0805 23.4151 31.8278Z" fill="url(#paint8_linear_4366_5907)"/>
<defs>
<linearGradient id="paint0_linear_4366_5907" x1="-1.70063e-07" y1="7.08335" x2="260.895" y2="41.5472" gradientUnits="userSpaceOnUse">
<stop offset="0.44" stop-color="#EF5222"/>
<stop offset="1" stop-color="#FF8403"/>
</linearGradient>
<linearGradient id="paint1_linear_4366_5907" x1="-1.70063e-07" y1="7.08335" x2="260.895" y2="41.5472" gradientUnits="userSpaceOnUse">
<stop offset="0.44" stop-color="#EF5222"/>
<stop offset="1" stop-color="#FF8403"/>
</linearGradient>
<linearGradient id="paint2_linear_4366_5907" x1="-1.70063e-07" y1="7.08335" x2="260.895" y2="41.5472" gradientUnits="userSpaceOnUse">
<stop offset="0.44" stop-color="#EF5222"/>
<stop offset="1" stop-color="#FF8403"/>
</linearGradient>
<linearGradient id="paint3_linear_4366_5907" x1="-1.70063e-07" y1="7.08335" x2="260.895" y2="41.5472" gradientUnits="userSpaceOnUse">
<stop offset="0.44" stop-color="#EF5222"/>
<stop offset="1" stop-color="#FF8403"/>
</linearGradient>
<linearGradient id="paint4_linear_4366_5907" x1="-1.70063e-07" y1="7.08335" x2="260.895" y2="41.5472" gradientUnits="userSpaceOnUse">
<stop offset="0.44" stop-color="#EF5222"/>
<stop offset="1" stop-color="#FF8403"/>
</linearGradient>
<linearGradient id="paint5_linear_4366_5907" x1="-1.70063e-07" y1="7.08335" x2="260.895" y2="41.5472" gradientUnits="userSpaceOnUse">
<stop offset="0.44" stop-color="#EF5222"/>
<stop offset="1" stop-color="#FF8403"/>
</linearGradient>
<linearGradient id="paint6_linear_4366_5907" x1="-1.70063e-07" y1="7.08335" x2="260.895" y2="41.5472" gradientUnits="userSpaceOnUse">
<stop offset="0.44" stop-color="#EF5222"/>
<stop offset="1" stop-color="#FF8403"/>
</linearGradient>
<linearGradient id="paint7_linear_4366_5907" x1="-1.70063e-07" y1="7.08335" x2="260.895" y2="41.5472" gradientUnits="userSpaceOnUse">
<stop offset="0.44" stop-color="#EF5222"/>
<stop offset="1" stop-color="#FF8403"/>
</linearGradient>
<linearGradient id="paint8_linear_4366_5907" x1="-1.70063e-07" y1="7.08335" x2="260.895" y2="41.5472" gradientUnits="userSpaceOnUse">
<stop offset="0.44" stop-color="#EF5222"/>
<stop offset="1" stop-color="#FF8403"/>
</linearGradient>
</defs>
</svg>
