<svg xmlns="http://www.w3.org/2000/svg" fill="none" viewBox="0 0 59 11" height="11" width="59">
<path fill="black" d="M59 0.350419C58.6181 0.387198 58.2612 0.241351 57.8859 0.218522C56.69 0.144965 53.6057 0.0637978 52.5403 0.280666C51.4867 0.493729 50.9046 1.47027 50.8296 2.43793C50.7044 4.05493 50.6583 7.20777 50.8348 8.78418C50.9889 10.1691 52.2255 10.7677 53.5372 10.8755C54.6975 10.9694 56.8007 10.8349 58.0175 10.755C58.3521 10.7335 58.6642 10.6142 59 10.6231V8.65736C59 8.58887 58.7972 8.37581 58.8683 8.21348H54.5882C54.1272 8.21348 54.2708 6.73852 54.2589 6.43795H58.3415V4.28195H54.2589C54.2444 4.0004 54.1694 2.76007 54.5882 2.76007H58.8683C58.7972 2.599 59 2.38467 59 2.31618V0.350419ZM38.6529 0.223595H35.2946V7.51595C35.2946 7.55019 35.0589 8.07397 35.0154 8.13485C34.6362 8.66624 33.1506 8.61804 32.8069 8.00929C32.7424 7.89515 32.529 7.09997 32.529 7.00865V0.223595H29.1049V7.38912C29.1049 8.05622 29.7002 9.46015 30.2059 9.94335C31.4359 11.1228 34.8969 11.1938 36.476 10.6827C37.5085 10.3492 38.159 9.68336 38.4922 8.69287C38.6529 8.21348 38.8504 7.10123 38.8504 6.62818V0.413831L38.6529 0.223595ZM23.9029 2.76007H28.0513L28.1844 0.350419C26.3182 0.345346 23.7725 -0.0389293 21.9591 0.254033C21.2295 0.371979 20.2694 1.24579 20.1496 1.93571V10.7499H23.5737V6.69159H27.5246V4.53559H23.5737C23.5855 4.23629 23.442 2.76007 23.9029 2.76007ZM18.8326 0.350419C16.9322 0.317445 14.4524 -0.00975985 12.5889 0.23501C11.6143 0.363101 10.7715 1.25467 10.6674 2.18936C10.4909 3.76704 10.537 6.91861 10.6621 8.53561C10.7754 10.0106 11.7355 10.7373 13.2355 10.8057C15.0068 10.8869 17.056 10.7106 18.8326 10.6231V8.78418C18.8326 8.7157 18.6298 8.50263 18.7009 8.3403H14.8158C14.6881 8.3403 14.1468 8.05622 14.1165 7.87232L14.0915 6.43795H18.1741V4.28195H14.0915C14.077 4.0004 14.002 2.76007 14.4208 2.76007H18.7009C18.6298 2.599 18.8326 2.38467 18.8326 2.31618V0.350419ZM7.11292 5.92939L8.56685 5.23947C10.1538 2.56856 9.10549 0.360565 5.85917 0.0993084C3.98909 -0.0516116 1.87404 0.144965 0 0.223595V10.7499H3.42411V6.94524C3.97723 7.0188 4.82667 6.73091 5.20069 7.20016C5.64451 7.75818 5.79069 9.97125 6.05804 10.7499H9.61384C9.10022 9.17734 9.26484 6.1843 7.11292 5.92939ZM5.78806 3.83046C5.75777 4.01562 5.47857 4.53559 5.33371 4.53559H3.42411V2.3796C4.62123 2.45442 6.05804 2.18429 5.78806 3.83046ZM46.2254 4.66242V8.08665C44.7425 8.12597 43.8733 8.33269 43.7179 6.63326C43.6297 5.66686 43.4335 3.08727 44.7188 2.8945C45.3549 2.79938 48.7145 3.0302 48.8607 2.88816L49.1241 0.478511C46.9682 -0.0554163 42.9238 -0.491689 41.2355 1.18872C39.7236 2.69285 39.854 6.6675 40.3966 8.56351C41.2434 11.5172 44.6464 11.6301 46.6877 9.73663L47.0815 10.7499H49.5179V4.66242H46.2254Z"></path>
<path fill="black" d="M7.39863 6.04709L8.91096 5.33823C10.5616 2.594 9.47123 0.325386 6.09452 0.0569573C4.14932 -0.0981061 1.94931 0.103867 0 0.184657V11H3.56164V7.09084C4.13699 7.16642 5.02055 6.87062 5.40959 7.35275C5.87123 7.9261 6.02329 10.1999 6.30137 11H10C9.46575 9.38421 9.63699 6.30901 7.39863 6.04709ZM6.02055 3.89054C5.98904 4.08079 5.69863 4.61504 5.54795 4.61504H3.56164V2.39985C4.80685 2.47673 6.30137 2.19918 6.02055 3.89054Z"></path>
<path fill="black" d="M32.1622 0V6.93625C32.1622 7.0296 32.3592 7.8425 32.4188 7.95919C32.7362 8.58021 34.1081 8.63077 34.4584 8.08754C34.4985 8.02531 34.7162 7.48985 34.7162 7.45485V0H37.8176L38 0.194474V6.5473C38 7.0309 37.8176 8.16792 37.6692 8.658C37.3615 9.67056 36.7607 10.3512 35.8072 10.6922C34.3489 11.2134 31.1527 11.1421 30.0168 9.93634C29.5497 9.44108 29 8.00586 29 7.3252V0H32.1622Z"></path>
<path fill="black" d="M46.692 10.7503L46.3175 9.73572C44.3827 11.6304 41.1584 11.5176 40.3558 8.56263C39.8403 6.66666 39.7179 2.6921 41.1497 1.188C42.75 -0.492373 46.5834 -0.0548412 48.6268 0.479074L48.3771 2.8874C48.2398 3.02944 45.0543 2.79863 44.4513 2.89374C43.233 3.08651 43.419 5.66604 43.5027 6.63242C43.65 8.33181 44.4738 8.1251 45.8794 8.08578V4.66162H49V10.749H46.6907L46.692 10.7503Z"></path>
<path fill="black" d="M59 0.212459V2.22113C59 2.29111 58.7781 2.50882 58.8569 2.6747H54.2051C53.7499 2.6747 53.8315 3.9421 53.8472 4.2298H58.2843V6.43286H53.8472C53.8601 6.73999 53.7027 8.24714 54.2051 8.24714H58.8569C58.7781 8.41302 59 8.63073 59 8.70071V10.7094C58.635 10.7003 58.2958 10.8221 57.9322 10.8442C56.6097 10.9258 54.3238 11.0632 53.0628 10.9673C51.6372 10.8584 50.2932 10.2467 50.1258 8.8316C49.9354 7.21948 49.9841 3.99783 50.12 2.34554C50.2016 1.35675 50.8343 0.358897 51.9793 0.141183C53.1244 -0.0765307 56.4909 0.00381611 57.7891 0.0776833C58.197 0.10101 58.5849 0.25004 59 0.212459Z"></path>
<path fill="black" d="M19 0.212838V2.23696C19 2.30748 18.8028 2.52687 18.8728 2.69402H14.7378C14.3332 2.69402 14.4058 3.97118 14.4198 4.26108H18.3639V6.48109H14.4198L14.4439 7.95804C14.4732 8.1474 14.9961 8.43992 15.1195 8.43992H18.8728C18.8028 8.60707 19 8.82646 19 8.89698V10.7905C17.2837 10.8806 15.304 11.0621 13.5928 10.9786C12.1436 10.908 11.2161 10.1598 11.1067 8.64102C10.9858 6.97602 10.9426 3.72959 11.1118 2.10507C11.2123 1.14263 12.0266 0.224591 12.9681 0.0926961C14.7684 -0.15934 17.1641 0.178885 19 0.211532V0.212838Z"></path>
<path fill="black" d="M20 1.85847C20.118 1.14293 21.0752 0.236672 21.8017 0.114347C23.6073 -0.189494 26.1419 0.207735 28 0.212996L27.8676 2.71343H23.7371C23.2768 2.71343 23.4211 4.24316 23.4093 4.55489H27.3431V6.79095H23.4093V11H20V1.85847Z"></path>
</svg>
