<svg xmlns="http://www.w3.org/2000/svg" fill="none" viewBox="0 0 118 118" width="118" height="118">
<rect fill="black" width="118" height="118"/>
<path fill="white" transform="translate(-52, 0)" d="M101.512 48.9367C101.313 48.9089 104.14 48.3816 105.499 48C105.624 47.9653 105.74 47.9306 105.856 47.8959C108.592 47.0703 110.764 46.0296 112.372 44.746C113.972 43.4694 115.099 42.0887 115.738 40.597C116.384 39.1053 116.708 37.6899 116.708 36.3439C116.708 34.1445 115.995 32.181 114.577 30.4742C113.16 28.7674 110.988 27.4353 108.069 26.4848C105.135 25.5412 101.487 25.0694 97.0933 25.0694C96.1648 25.0694 94.5731 25.0902 92.3264 25.1318C90.0798 25.1735 87.7171 25.1943 85.2301 25.1943C83.3731 25.1943 81.4995 25.1735 79.6176 25.1318C77.7275 25.0902 76.1855 25.0416 75 25V26.2974C76.7078 26.3391 78.0093 26.5056 78.913 26.7831C79.8166 27.0676 80.4135 27.581 80.6953 28.3442C80.9772 29.1005 81.1264 30.2799 81.1264 31.8757V64.0549C81.1264 65.6091 80.9855 66.7747 80.6953 67.5587C80.4135 68.3357 79.8332 68.8561 78.9544 69.1128C78.0756 69.3695 76.7575 69.5499 75 69.6332V70.9306C76.1855 70.8474 77.7275 70.7919 79.6176 70.7641C81.4995 70.7433 83.5306 70.7364 85.6943 70.7364C87.6591 70.7364 89.5824 70.7502 91.4725 70.7641C93.3544 70.7849 94.9212 70.8404 96.1648 70.9306V69.6332C94.457 69.5499 93.1637 69.3695 92.285 69.1128C91.4062 68.8561 90.8176 68.3357 90.5026 67.5587C90.1959 66.7747 90.0383 65.6091 90.0383 64.0549V49.1309H95.3855C95.6508 49.1309 95.9078 49.1309 96.1648 49.1309C96.1648 49.1309 96.1896 49.1309 96.1979 49.1309C96.944 49.2142 97.7316 49.5125 98.5606 50.0121C99.4891 50.5741 100.343 51.6564 101.114 53.2591L106.345 64.3463L108.799 69.5499L120.339 94H122.892L140.492 55.4724C141.47 53.3493 142.548 51.816 143.709 50.8655C144.869 49.9149 145.972 49.3321 147 49.1101V47.8127C146.229 47.8543 145.375 47.9029 144.447 47.9445C143.51 47.9861 142.407 48.0069 141.114 48.0069C139.713 48.0069 138.246 47.9861 136.695 47.9445C135.145 47.9029 133.57 47.8612 131.962 47.8127V49.1101C134.134 49.1517 135.783 49.4986 136.927 50.1508C138.063 50.7961 138.627 51.8715 138.627 53.3632C138.627 54.8549 138.03 56.9155 136.845 59.559L125.28 85.0081L119.07 71.451L117.852 68.8006L115.398 63.4305C115.398 63.4305 109.039 49.9913 101.437 48.8673M90.0383 31.8757C90.0383 29.6278 90.3865 28.136 91.0829 27.4006C91.7793 26.6652 93.2383 26.2974 95.4601 26.2974C99.8041 26.2974 102.847 27.241 104.612 29.1213C106.37 31.0015 107.249 33.6519 107.249 37.0655C107.249 39.0567 106.925 40.8606 106.279 42.4842C105.632 44.1077 104.389 45.4051 102.556 46.3765C100.965 47.2229 98.7513 47.6947 95.9409 47.8057H95.9326C95.5098 47.8265 95.0622 47.8335 94.6145 47.8335H90.0383V31.8757Z"/>
</svg>
