<svg xmlns="http://www.w3.org/2000/svg" fill="none" viewBox="0 0 214 216" height="216" width="214">
<path fill="black" d="M17.0184 142.411C17.9184 142.442 19.1398 142.473 20.6827 142.503C22.2165 142.534 23.7502 142.55 25.2655 142.55C27.0013 142.55 28.6819 142.534 30.3075 142.503C31.9331 142.473 33.0902 142.457 33.779 142.457C37.1403 142.457 39.9322 142.765 42.1548 143.389C44.3773 144.013 46.0396 144.914 47.1416 146.092C48.2437 147.278 48.7947 148.702 48.7947 150.365C48.7947 151.397 48.5376 152.437 48.0325 153.476C47.5274 154.523 46.6641 155.493 45.4518 156.387C44.2395 157.28 42.5864 157.996 40.4925 158.527C38.3985 159.059 35.7536 159.32 32.5759 159.32H27.3686V158.412H32.0341C34.1648 158.412 35.7811 158.073 36.8832 157.388C37.9853 156.702 38.7475 155.794 39.1608 154.662C39.5741 153.522 39.7853 152.259 39.7853 150.866C39.7853 148.471 39.2802 146.615 38.27 145.299C37.2597 143.982 35.524 143.32 33.0627 143.32C31.6484 143.32 30.7392 143.574 30.3259 144.09C29.9126 144.606 29.7014 145.653 29.7014 147.224V169.777C29.7014 170.87 29.8024 171.687 29.9953 172.233C30.1973 172.78 30.583 173.142 31.1616 173.327C31.7402 173.512 32.6035 173.627 33.7607 173.689V174.597C32.7872 174.536 31.5565 174.497 30.0687 174.482C28.5901 174.466 27.0839 174.459 25.5686 174.459C23.8328 174.459 22.1981 174.459 20.6644 174.482C19.1307 174.497 17.9092 174.536 17 174.597V173.689C18.1572 173.627 19.0205 173.504 19.599 173.327C20.1776 173.142 20.5634 172.78 20.7654 172.233C20.9675 171.687 21.0685 170.87 21.0685 169.777V147.231C21.0685 146.107 20.9675 145.283 20.7654 144.752C20.5634 144.221 20.1684 143.859 19.5715 143.658C18.9745 143.458 18.1113 143.35 17 143.32V142.411H17.0184ZM27.2676 158.55C28.8197 158.581 30.1697 158.643 31.3085 158.735C32.4474 158.828 33.4484 158.912 34.3209 158.982C35.1842 159.059 35.9648 159.112 36.6536 159.143C39.9414 159.39 42.3752 159.975 43.9456 160.914C45.5161 161.854 46.5355 163.263 47.0131 165.142L48.2621 169.823C48.5835 171.04 48.9325 171.887 49.2907 172.372C49.6488 172.857 50.1723 173.096 50.8611 173.096C51.3295 173.065 51.7152 172.965 52.0275 172.803C52.3397 172.634 52.6704 172.387 53.0285 172.056L53.7908 172.603C52.8173 173.542 51.7611 174.22 50.6407 174.628C49.5203 175.036 48.1611 175.244 46.5722 175.244C44.6161 175.244 43.0089 174.898 41.7415 174.197C40.4741 173.496 39.6475 172.21 39.2435 170.331L38.27 165.788C38.0128 164.518 37.7097 163.401 37.3516 162.447C36.9934 161.492 36.4883 160.737 35.8638 160.175C35.2301 159.613 34.3576 159.336 33.2372 159.336H27.3778L27.2676 158.566V158.55Z"></path>
<path fill="black" d="M67.9986 150.458C70.6344 150.458 72.9488 150.866 74.9417 151.682C76.9346 152.498 78.4866 153.823 79.6071 155.64C80.7275 157.457 81.2877 159.867 81.2877 162.87C81.2877 165.873 80.7275 168.276 79.6071 170.077C78.4866 171.879 76.9346 173.188 74.9417 174.012C72.9579 174.828 70.6344 175.236 67.9986 175.236C65.3628 175.236 63.1403 174.828 61.1382 174.012C59.1269 173.196 57.5565 171.879 56.4177 170.077C55.2789 168.276 54.7095 165.873 54.7095 162.87C54.7095 159.867 55.2789 157.457 56.4177 155.64C57.5565 153.823 59.1269 152.506 61.1382 151.682C63.1403 150.866 65.4271 150.458 67.9986 150.458ZM67.9986 151.366C66.5475 151.366 65.3445 152.267 64.3618 154.069C63.3883 155.871 62.9015 158.804 62.9015 162.87C62.9015 166.936 63.3883 169.854 64.3618 171.648C65.3353 173.435 66.5475 174.328 67.9986 174.328C69.4497 174.328 70.6987 173.435 71.663 171.648C72.6181 169.862 73.0957 166.936 73.0957 162.87C73.0957 158.804 72.6181 155.878 71.663 154.069C70.7079 152.267 69.4864 151.366 67.9986 151.366Z"></path>
<path fill="black" d="M95.1641 139V170.37C95.1641 171.641 95.4212 172.511 95.9539 172.965C96.4774 173.419 97.3774 173.65 98.6356 173.65V174.605C97.9468 174.574 96.9182 174.536 95.5498 174.49C94.1722 174.443 92.7855 174.42 91.3711 174.42C89.9568 174.42 88.5425 174.443 87.1098 174.49C85.6771 174.536 84.6026 174.574 83.8862 174.605V173.65C85.1536 173.65 86.0445 173.419 86.5679 172.965C87.0914 172.511 87.3578 171.648 87.3578 170.37V144.459C87.3578 143.096 87.1098 142.088 86.623 141.433C86.1363 140.779 85.2179 140.455 83.8862 140.455V139.501C85.0434 139.593 86.1638 139.639 87.2475 139.639C88.7262 139.639 90.1405 139.585 91.4813 139.477C92.8222 139.37 94.0528 139.216 95.1733 139H95.1641Z"></path>
<path fill="black" d="M112.357 139V170.37C112.357 171.641 112.614 172.511 113.147 172.965C113.67 173.419 114.57 173.65 115.828 173.65V174.605C115.14 174.574 114.111 174.536 112.743 174.49C111.365 174.443 109.978 174.42 108.564 174.42C107.15 174.42 105.735 174.443 104.303 174.49C102.87 174.536 101.795 174.574 101.079 174.605V173.65C102.346 173.65 103.237 173.419 103.761 172.965C104.284 172.511 104.551 171.648 104.551 170.37V144.459C104.551 143.096 104.303 142.088 103.816 141.433C103.329 140.779 102.411 140.455 101.079 140.455V139.501C102.236 139.593 103.357 139.639 104.44 139.639C105.919 139.639 107.333 139.585 108.674 139.477C110.015 139.37 111.246 139.216 112.366 139H112.357Z"></path>
<path fill="black" d="M129.438 150.597V170.378C129.438 171.649 129.696 172.519 130.228 172.973C130.752 173.427 131.643 173.658 132.91 173.658V174.613C132.258 174.582 131.248 174.544 129.87 174.498C128.493 174.451 127.106 174.428 125.691 174.428C124.277 174.428 122.854 174.451 121.412 174.498C119.961 174.544 118.877 174.582 118.161 174.613V173.658C119.428 173.658 120.319 173.427 120.842 172.973C121.366 172.519 121.632 171.656 121.632 170.378V156.056C121.632 154.693 121.384 153.684 120.897 153.03C120.411 152.375 119.492 152.052 118.161 152.052V151.097C119.318 151.19 120.438 151.236 121.522 151.236C123.037 151.236 124.461 151.182 125.783 151.074C127.106 150.966 128.318 150.812 129.448 150.597H129.438ZM125.205 139.37C126.72 139.37 127.923 139.678 128.814 140.302C129.696 140.925 130.146 141.78 130.146 142.873C130.146 143.967 129.705 144.822 128.814 145.445C127.932 146.069 126.729 146.377 125.205 146.377C123.68 146.377 122.486 146.069 121.595 145.445C120.714 144.822 120.264 143.967 120.264 142.873C120.264 141.78 120.705 140.925 121.595 140.302C122.477 139.678 123.68 139.37 125.205 139.37Z"></path>
<path fill="black" d="M155.411 150.458C156.926 150.458 158.166 150.619 159.121 150.935C160.076 151.251 160.829 151.682 161.371 152.229C161.95 152.806 162.372 153.545 162.648 154.454C162.923 155.363 163.052 156.595 163.052 158.135V170.362C163.052 171.633 163.309 172.503 163.842 172.957C164.365 173.412 165.256 173.643 166.523 173.643V174.597C165.835 174.567 164.806 174.528 163.428 174.482C162.051 174.436 160.701 174.413 159.36 174.413C158.019 174.413 156.642 174.436 155.319 174.482C153.997 174.528 152.996 174.567 152.307 174.597V173.643C153.39 173.643 154.153 173.412 154.584 172.957C155.016 172.503 155.236 171.641 155.236 170.362V156.225C155.236 155.47 155.145 154.808 154.961 154.246C154.777 153.684 154.456 153.245 153.987 152.929C153.519 152.614 152.812 152.452 151.875 152.452C150.938 152.452 150.002 152.683 149.193 153.137C148.376 153.592 147.733 154.223 147.237 155.024C146.75 155.825 146.502 156.726 146.502 157.727V170.37C146.502 171.641 146.732 172.511 147.182 172.965C147.632 173.419 148.385 173.65 149.432 173.65V174.605C148.78 174.574 147.834 174.536 146.585 174.49C145.336 174.443 144.041 174.42 142.709 174.42C141.378 174.42 139.927 174.443 138.476 174.49C137.025 174.536 135.941 174.574 135.225 174.605V173.65C136.492 173.65 137.383 173.419 137.906 172.965C138.43 172.511 138.696 171.648 138.696 170.37V156.048C138.696 154.685 138.448 153.676 137.961 153.022C137.475 152.367 136.556 152.044 135.225 152.044V151.089C136.382 151.182 137.502 151.228 138.586 151.228C140.101 151.228 141.525 151.174 142.847 151.066C144.17 150.958 145.382 150.804 146.512 150.589V154.677C147.412 153.13 148.642 152.044 150.194 151.405C151.746 150.766 153.482 150.45 155.402 150.45L155.411 150.458Z"></path>
<path fill="black" d="M178.674 183.152C176.433 183.152 174.431 182.99 172.686 182.675C170.932 182.359 169.564 181.874 168.562 181.219C167.571 180.565 167.075 179.772 167.075 178.832C167.075 177.893 167.58 177.054 168.59 176.307C169.6 175.568 171.106 174.982 173.09 174.559L173.577 175.283C172.888 175.737 172.392 176.23 172.089 176.761C171.777 177.292 171.63 177.847 171.63 178.417C171.63 179.687 172.328 180.665 173.715 181.35C175.101 182.036 176.993 182.374 179.381 182.374C181.007 182.374 182.467 182.19 183.744 181.828C185.02 181.466 186.039 180.919 186.783 180.188C187.527 179.464 187.895 178.563 187.895 177.508C187.895 176.599 187.5 175.829 186.701 175.213C185.902 174.59 184.313 174.282 181.925 174.282H178.564C177.085 174.282 175.79 174.143 174.688 173.874C173.586 173.604 172.723 173.165 172.108 172.58C171.492 171.987 171.189 171.24 171.189 170.332C171.189 169.061 171.786 167.937 172.98 166.967C174.174 165.996 175.946 165.088 178.297 164.241L178.839 164.603C178.151 164.965 177.508 165.35 176.911 165.765C176.314 166.173 176.02 166.697 176.02 167.336C176.02 168.306 176.745 168.791 178.187 168.791H184.102C186.085 168.791 187.867 168.992 189.447 169.384C191.017 169.777 192.266 170.424 193.185 171.317C194.103 172.21 194.571 173.373 194.571 174.798C194.571 176.222 194.002 177.662 192.863 178.932C191.724 180.203 189.979 181.227 187.628 182.005C185.277 182.775 182.292 183.167 178.683 183.167L178.674 183.152ZM179.216 164.918C177.159 164.918 175.313 164.664 173.687 164.148C172.062 163.632 170.776 162.847 169.839 161.784C168.902 160.722 168.434 159.359 168.434 157.696C168.434 156.032 168.902 154.654 169.839 153.584C170.776 152.506 172.062 151.72 173.687 151.22C175.313 150.719 177.159 150.473 179.216 150.473C181.273 150.473 183.119 150.719 184.745 151.22C186.37 151.72 187.656 152.506 188.593 153.584C189.529 154.662 190.007 156.032 190.007 157.696C190.007 159.359 189.539 160.73 188.593 161.784C187.656 162.847 186.37 163.632 184.745 164.148C183.119 164.664 181.273 164.918 179.216 164.918ZM179.216 164.102C180.189 164.102 180.952 163.64 181.493 162.716C182.035 161.792 182.311 160.121 182.311 157.696C182.311 155.27 182.035 153.599 181.493 152.668C180.952 151.744 180.189 151.282 179.216 151.282C178.242 151.282 177.526 151.744 176.966 152.668C176.406 153.592 176.121 155.27 176.121 157.696C176.121 160.121 176.396 161.792 176.966 162.716C177.526 163.64 178.279 164.102 179.216 164.102ZM187.674 154.369L186.591 154.054C187.132 152.868 188.005 151.89 189.217 151.097C190.429 150.311 191.743 149.911 193.148 149.911C194.305 149.911 195.178 150.18 195.774 150.704C196.371 151.235 196.665 151.928 196.665 152.775C196.665 153.684 196.371 154.362 195.802 154.8C195.223 155.239 194.571 155.463 193.846 155.463C193.231 155.463 192.661 155.278 192.138 154.916C191.614 154.554 191.311 154 191.247 153.253C191.173 152.514 191.486 151.551 192.165 150.365L192.542 150.635C191.164 151.058 190.136 151.551 189.447 152.113C188.758 152.675 188.161 153.422 187.656 154.362L187.674 154.369Z"></path>
<path fill="black" d="M34.8714 182.687V183.595C34.1826 183.719 33.4478 184.065 32.6764 184.643C31.8958 185.22 31.207 186.19 30.5916 187.553L17.8444 215.104H16.9811L3.74704 186.506C3.20519 185.351 2.58987 184.589 1.90107 184.211C1.21228 183.834 0.578587 183.626 0 183.595V182.687C0.72553 182.718 1.61637 182.748 2.6817 182.779C3.74704 182.81 4.78482 182.825 5.80424 182.825C7.20938 182.825 8.53187 182.81 9.76251 182.779C10.9932 182.748 11.985 182.718 12.7473 182.687V183.595C11.5166 183.626 10.5891 183.749 9.95537 183.957C9.32168 184.173 8.98188 184.542 8.92677 185.074C8.87167 185.605 9.0829 186.383 9.55128 187.415L19.6352 209.829L18.7719 210.599L28.2038 190.048C28.9661 188.408 29.3243 187.13 29.2875 186.206C29.2508 185.282 28.8375 184.619 28.0385 184.227C27.2395 183.834 26.0823 183.618 24.567 183.588V182.679C25.614 182.71 26.6793 182.741 27.763 182.771C28.8467 182.802 29.8569 182.818 30.8029 182.818C31.7488 182.818 32.5203 182.802 33.1356 182.771C33.7509 182.741 34.3295 182.71 34.8714 182.679V182.687Z"></path>
<path fill="black" d="M45.9837 190.826C49.1613 190.826 51.6501 191.634 53.441 193.259C55.2319 194.884 56.1227 197.402 56.1227 200.828H36.9834L36.9283 199.966H50.9154C50.9889 198.48 50.842 197.109 50.4838 195.854C50.1256 194.599 49.5562 193.59 48.7756 192.828C47.9949 192.073 46.9939 191.688 45.7632 191.688C44.101 191.688 42.6223 192.389 41.3458 193.783C40.06 195.176 39.2978 197.394 39.0406 200.42L39.2059 200.605C39.1325 201.059 39.0773 201.56 39.0406 202.106C39.0039 202.653 38.9855 203.2 38.9855 203.746C38.9855 205.81 39.3804 207.581 40.1794 209.067C40.9784 210.553 42.0162 211.685 43.3019 212.455C44.5877 213.225 45.9102 213.618 47.2878 213.618C48.3715 213.618 49.4001 213.472 50.3828 213.187C51.3563 212.902 52.2655 212.424 53.092 211.755C53.9277 211.085 54.6441 210.191 55.2594 209.075L56.3431 209.437C55.9482 210.438 55.2962 211.408 54.3869 212.347C53.4869 213.287 52.3389 214.049 50.9705 214.642C49.5929 215.235 48.0041 215.528 46.1949 215.528C43.5958 215.528 41.355 215.027 39.4998 214.026C37.6355 213.025 36.212 211.639 35.2109 209.868C34.219 208.097 33.7231 206.056 33.7231 203.754C33.7231 201.09 34.2282 198.788 35.2385 196.863C36.2487 194.938 37.6814 193.451 39.5182 192.404C41.3641 191.357 43.5132 190.833 45.9745 190.833L45.9837 190.826Z"></path>
<path fill="black" d="M78.4671 190.826C79.8447 190.826 80.9927 190.98 81.9111 191.28C82.8295 191.58 83.6009 192.004 84.2162 192.551C84.905 193.159 85.3918 193.914 85.6765 194.822C85.9704 195.731 86.1081 196.963 86.1081 198.503V210.646C86.1081 211.916 86.4204 212.786 87.0541 213.241C87.6878 213.695 88.7439 213.926 90.2225 213.926V214.881C89.6072 214.85 88.6704 214.811 87.4031 214.765C86.1357 214.719 84.905 214.696 83.7111 214.696C82.5172 214.696 81.3508 214.719 80.212 214.765C79.0732 214.811 78.21 214.85 77.6406 214.881V213.926C78.9447 213.926 79.8631 213.695 80.4049 213.241C80.9468 212.786 81.2223 211.924 81.2223 210.646V197.509C81.2223 196.57 81.1304 195.708 80.9468 194.915C80.7631 194.129 80.359 193.49 79.7253 193.005C79.0916 192.52 78.1273 192.281 76.8232 192.281C75.3078 192.281 73.9762 192.643 72.8374 193.374C71.6985 194.098 70.8077 195.092 70.1832 196.354C69.5495 197.61 69.2373 199.011 69.2373 200.559V210.653C69.2373 211.924 69.5128 212.794 70.0546 213.248C70.5965 213.703 71.5149 213.934 72.819 213.934V214.888C72.2404 214.858 71.3771 214.819 70.2475 214.773C69.1087 214.727 67.9423 214.704 66.7484 214.704C65.5545 214.704 64.3239 214.727 63.0657 214.773C61.7983 214.819 60.8615 214.858 60.2462 214.888V213.934C61.7248 213.934 62.781 213.703 63.4147 213.248C64.0483 212.794 64.3606 211.932 64.3606 210.653V196.424C64.3606 195.061 64.0667 194.052 63.4973 193.398C62.9187 192.743 61.835 192.42 60.2462 192.42V191.465C61.4034 191.557 62.5238 191.603 63.6075 191.603C64.6912 191.603 65.6555 191.55 66.6198 191.442C67.575 191.334 68.4566 191.18 69.2464 190.964V196.331C70.1832 194.268 71.4965 192.835 73.1772 192.035C74.8578 191.234 76.6211 190.833 78.4671 190.833V190.826Z"></path>
<path fill="black" d="M101.354 183.919V191.511H109.381V192.419H101.354V210.014C101.354 211.439 101.657 212.44 102.272 213.017C102.887 213.595 103.732 213.879 104.825 213.879C105.918 213.879 106.846 213.51 107.645 212.763C108.444 212.024 109.123 210.769 109.702 209.013L110.786 209.244C110.427 211 109.711 212.486 108.646 213.702C107.58 214.911 105.946 215.52 103.742 215.52C102.511 215.52 101.501 215.389 100.702 215.135C99.9027 214.881 99.2047 214.503 98.5894 214.018C97.7904 213.317 97.2394 212.486 96.9363 211.516C96.624 210.545 96.4771 209.259 96.4771 207.65V192.419H91.2698V191.511H96.4771V184.558C97.3771 184.527 98.2496 184.465 99.0762 184.373C99.9119 184.28 100.665 184.134 101.354 183.919Z"></path>
<path fill="black" d="M136.436 190.964V209.968C136.436 211.331 136.73 212.34 137.327 212.994C137.924 213.649 138.999 213.972 140.551 213.972V214.927C139.43 214.834 138.31 214.788 137.189 214.788C136.142 214.788 135.141 214.834 134.177 214.927C133.222 215.019 132.34 215.181 131.551 215.427V210.06C130.65 212.032 129.374 213.433 127.73 214.265C126.086 215.096 124.396 215.512 122.66 215.512C121.393 215.512 120.291 215.358 119.354 215.058C118.418 214.757 117.637 214.334 117.022 213.787C116.333 213.179 115.864 212.393 115.607 211.423C115.35 210.453 115.231 209.26 115.231 207.827V196.416C115.231 195.053 114.937 194.044 114.367 193.39C113.789 192.735 112.705 192.412 111.116 192.412V191.457C112.273 191.549 113.394 191.596 114.478 191.596C115.561 191.596 116.526 191.542 117.49 191.434C118.445 191.326 119.327 191.172 120.117 190.957V208.828C120.117 209.768 120.19 210.63 120.337 211.423C120.484 212.209 120.842 212.848 121.421 213.333C121.999 213.818 122.936 214.057 124.24 214.057C125.645 214.057 126.903 213.695 128.006 212.963C129.108 212.239 129.98 211.254 130.605 210.006C131.238 208.767 131.551 207.373 131.551 205.825V196.416C131.551 195.053 131.257 194.044 130.687 193.39C130.109 192.735 129.025 192.412 127.436 192.412V191.457C128.593 191.549 129.714 191.596 130.797 191.596C131.881 191.596 132.845 191.542 133.81 191.434C134.765 191.326 135.647 191.172 136.436 190.957V190.964Z"></path>
<path fill="black" d="M160.195 190.826C161.169 190.826 162.032 190.995 162.767 191.326C163.501 191.657 164.089 192.088 164.502 192.62C164.916 193.151 165.127 193.752 165.127 194.414C165.127 195.168 164.851 195.838 164.282 196.416C163.722 196.993 162.969 197.278 162.032 197.278C161.27 197.278 160.599 197.07 160.03 196.662C159.451 196.254 159.166 195.669 159.166 194.914C159.166 194.337 159.359 193.844 159.736 193.436C160.112 193.028 160.544 192.704 161.012 192.458C160.755 192.158 160.379 192.004 159.874 192.004C158.753 192.004 157.725 192.281 156.779 192.843C155.842 193.405 155.043 194.121 154.391 195.007C153.739 195.885 153.234 196.816 152.875 197.802C152.517 198.788 152.334 199.704 152.334 200.551V210.191C152.334 211.677 152.848 212.671 153.876 213.171C154.905 213.672 156.31 213.918 158.083 213.918V214.873C157.247 214.842 156.071 214.804 154.556 214.757C153.041 214.711 151.424 214.688 149.735 214.688C148.504 214.688 147.282 214.711 146.07 214.757C144.858 214.804 143.949 214.842 143.333 214.873V213.918C144.812 213.918 145.868 213.687 146.502 213.233C147.136 212.779 147.448 211.916 147.448 210.638V196.408C147.448 195.045 147.154 194.037 146.584 193.382C146.006 192.728 144.922 192.404 143.333 192.404V191.449C144.491 191.542 145.611 191.588 146.695 191.588C147.778 191.588 148.743 191.534 149.707 191.426C150.662 191.318 151.544 191.164 152.334 190.949V196.632C152.729 195.754 153.298 194.868 154.042 193.975C154.786 193.082 155.677 192.335 156.724 191.727C157.77 191.118 158.928 190.818 160.195 190.818V190.826Z"></path>
<path fill="black" d="M179.555 190.826C182.733 190.826 185.221 191.634 187.012 193.259C188.803 194.884 189.694 197.402 189.694 200.828H170.555L170.5 199.966H184.487C184.56 198.48 184.413 197.109 184.055 195.854C183.697 194.599 183.127 193.59 182.347 192.828C181.566 192.073 180.565 191.688 179.334 191.688C177.672 191.688 176.194 192.389 174.917 193.783C173.631 195.176 172.869 197.394 172.612 200.42L172.777 200.605C172.704 201.059 172.649 201.56 172.612 202.106C172.575 202.653 172.557 203.2 172.557 203.746C172.557 205.81 172.952 207.581 173.751 209.067C174.55 210.553 175.587 211.685 176.873 212.455C178.159 213.225 179.481 213.618 180.859 213.618C181.943 213.618 182.971 213.472 183.954 213.187C184.927 212.902 185.837 212.424 186.663 211.755C187.499 211.085 188.215 210.191 188.831 209.075L189.914 209.437C189.519 210.438 188.867 211.408 187.958 212.347C187.058 213.287 185.91 214.049 184.542 214.642C183.164 215.235 181.575 215.528 179.766 215.528C177.167 215.528 174.926 215.027 173.071 214.026C171.207 213.025 169.783 211.639 168.782 209.868C167.79 208.097 167.294 206.056 167.294 203.754C167.294 201.09 167.799 198.788 168.81 196.863C169.82 194.938 171.253 193.451 173.099 192.404C174.945 191.357 177.094 190.833 179.555 190.833V190.826Z"></path>
<path fill="black" d="M203.525 190.826C204.967 190.826 206.197 191.026 207.217 191.419C208.227 191.811 208.971 192.173 209.439 192.512C210.633 193.328 211.359 192.782 211.607 190.872H212.856C212.782 191.719 212.727 192.728 212.69 193.898C212.654 195.069 212.635 196.632 212.635 198.603H211.386C211.166 197.479 210.798 196.393 210.275 195.33C209.751 194.268 208.98 193.398 207.97 192.712C206.959 192.027 205.637 191.688 204.011 191.688C202.744 191.688 201.688 191.981 200.843 192.574C199.989 193.167 199.566 194.037 199.566 195.192C199.566 196.1 199.888 196.878 200.54 197.533C201.192 198.187 202.037 198.788 203.093 199.35C204.14 199.912 205.279 200.528 206.509 201.19C207.878 201.914 209.127 202.661 210.247 203.415C211.368 204.17 212.259 205.009 212.929 205.918C213.599 206.826 213.93 207.905 213.93 209.144C213.93 210.538 213.498 211.708 212.626 212.648C211.763 213.587 210.624 214.303 209.237 214.788C207.841 215.273 206.317 215.512 204.654 215.512C203.855 215.512 203.111 215.458 202.404 215.35C201.697 215.243 201.017 215.081 200.375 214.873C200.016 214.719 199.64 214.542 199.263 214.326C198.887 214.118 198.51 213.887 198.152 213.641C197.794 213.402 197.463 213.41 197.179 213.664C196.885 213.918 196.673 214.426 196.527 215.189H195.278C195.351 214.219 195.406 213.04 195.443 211.639C195.48 210.245 195.498 208.397 195.498 206.095H196.747C197.004 207.797 197.362 209.275 197.831 210.553C198.299 211.824 199.043 212.817 200.053 213.533C201.063 214.249 202.478 214.604 204.287 214.604C205.012 214.604 205.738 214.465 206.482 214.195C207.226 213.926 207.85 213.472 208.355 212.833C208.861 212.193 209.118 211.346 209.118 210.284C209.118 208.952 208.539 207.858 207.382 207.011C206.225 206.164 204.765 205.271 202.992 204.332C201.688 203.631 200.466 202.938 199.328 202.237C198.189 201.537 197.27 200.751 196.563 199.873C195.856 198.996 195.507 197.933 195.507 196.693C195.507 195.33 195.874 194.214 196.618 193.351C197.362 192.489 198.345 191.85 199.576 191.442C200.806 191.034 202.129 190.826 203.534 190.826H203.525Z"></path>
<rect fill="black" height="118" width="118" x="52"></rect>
<path fill="white" d="M101.512 48.9367C101.313 48.9089 104.14 48.3816 105.499 48C105.624 47.9653 105.74 47.9306 105.856 47.8959C108.592 47.0703 110.764 46.0296 112.372 44.746C113.972 43.4694 115.099 42.0887 115.738 40.597C116.384 39.1053 116.708 37.6899 116.708 36.3439C116.708 34.1445 115.995 32.181 114.577 30.4742C113.16 28.7674 110.988 27.4353 108.069 26.4848C105.135 25.5412 101.487 25.0694 97.0933 25.0694C96.1648 25.0694 94.5731 25.0902 92.3264 25.1318C90.0798 25.1735 87.7171 25.1943 85.2301 25.1943C83.3731 25.1943 81.4995 25.1735 79.6176 25.1318C77.7275 25.0902 76.1855 25.0416 75 25V26.2974C76.7078 26.3391 78.0093 26.5056 78.913 26.7831C79.8166 27.0676 80.4135 27.581 80.6953 28.3442C80.9772 29.1005 81.1264 30.2799 81.1264 31.8757V64.0549C81.1264 65.6091 80.9855 66.7747 80.6953 67.5587C80.4135 68.3357 79.8332 68.8561 78.9544 69.1128C78.0756 69.3695 76.7575 69.5499 75 69.6332V70.9306C76.1855 70.8474 77.7275 70.7919 79.6176 70.7641C81.4995 70.7433 83.5306 70.7364 85.6943 70.7364C87.6591 70.7364 89.5824 70.7502 91.4725 70.7641C93.3544 70.7849 94.9212 70.8404 96.1648 70.9306V69.6332C94.457 69.5499 93.1637 69.3695 92.285 69.1128C91.4062 68.8561 90.8176 68.3357 90.5026 67.5587C90.1959 66.7747 90.0383 65.6091 90.0383 64.0549V49.1309H95.3855C95.6508 49.1309 95.9078 49.1309 96.1648 49.1309C96.1648 49.1309 96.1896 49.1309 96.1979 49.1309C96.944 49.2142 97.7316 49.5125 98.5606 50.0121C99.4891 50.5741 100.343 51.6564 101.114 53.2591L106.345 64.3463L108.799 69.5499L120.339 94H122.892L140.492 55.4724C141.47 53.3493 142.548 51.816 143.709 50.8655C144.869 49.9149 145.972 49.3321 147 49.1101V47.8127C146.229 47.8543 145.375 47.9029 144.447 47.9445C143.51 47.9861 142.407 48.0069 141.114 48.0069C139.713 48.0069 138.246 47.9861 136.695 47.9445C135.145 47.9029 133.57 47.8612 131.962 47.8127V49.1101C134.134 49.1517 135.783 49.4986 136.927 50.1508C138.063 50.7961 138.627 51.8715 138.627 53.3632C138.627 54.8549 138.03 56.9155 136.845 59.559L125.28 85.0081L119.07 71.451L117.852 68.8006L115.398 63.4305C115.398 63.4305 109.039 49.9913 101.437 48.8673M90.0383 31.8757C90.0383 29.6278 90.3865 28.136 91.0829 27.4006C91.7793 26.6652 93.2383 26.2974 95.4601 26.2974C99.8041 26.2974 102.847 27.241 104.612 29.1213C106.37 31.0015 107.249 33.6519 107.249 37.0655C107.249 39.0567 106.925 40.8606 106.279 42.4842C105.632 44.1077 104.389 45.4051 102.556 46.3765C100.965 47.2229 98.7513 47.6947 95.9409 47.8057H95.9326C95.5098 47.8265 95.0622 47.8335 94.6145 47.8335H90.0383V31.8757Z"></path>
</svg>
